<svg width="22" height="22" viewBox="0 0 22 22" fill="none" xmlns="http://www.w3.org/2000/svg">
  <path d="M11.3334 21.6667C17.2244 21.6667 22 16.8911 22 11.0001C22 5.10903 17.2244 0.333405 11.3334 0.333405C5.44232 0.333405 0.666687 5.10903 0.666687 11.0001C0.666687 16.8911 5.44232 21.6667 11.3334 21.6667Z" fill="#231F20" />
  <path fill-rule="evenodd" clip-rule="evenodd" d="M7.91178 12.6276C7.5576 12.9716 7.0776 13.1815 6.547 13.174C6.19707 13.1683 5.85555 13.0658 5.56033 12.8779L4.85127 14.0088C5.33674 14.3165 5.9111 14.4984 6.52854 14.508C6.95663 14.5152 7.3819 14.4373 7.7796 14.2787C8.1773 14.1202 8.5395 13.8841 8.84512 13.5842L7.91247 12.6269L7.91178 12.6276ZM4.67828 11.4639C4.63607 11.0579 4.72496 10.6492 4.93193 10.2974C5.1389 9.94569 5.45307 9.66947 5.82841 9.50925C6.20376 9.34902 6.62055 9.3132 7.01773 9.40704C7.41491 9.50087 7.7716 9.71944 8.03554 10.0307L4.67828 11.4639ZM6.627 8.01771C6.20081 8.01102 5.77749 8.0884 5.38124 8.24544C4.98498 8.40247 4.62357 8.63608 4.31767 8.9329C4.01177 9.22972 3.76738 9.58393 3.59848 9.97527C3.42957 10.3666 3.33947 10.7874 3.33332 11.2136C3.32238 11.8844 3.51725 12.5128 3.85777 13.0345L9.73537 10.523C9.57002 9.81888 9.17427 9.19012 8.61091 8.7365C8.04754 8.28289 7.34883 8.03039 6.62563 8.01908L6.627 8.01771ZM11.5795 6.55583V12.8218L12.6667 13.2717L12.1525 14.508L11.0776 14.0615C10.8616 13.9671 10.6776 13.8123 10.5477 13.6157C10.428 13.431 10.3398 13.1787 10.3398 12.8382V6.55583H11.5795Z" fill="#FEFEFE" />
  <mask id="mask0" mask-type="alpha" maskUnits="userSpaceOnUse" x="15" y="8" width="5" height="3">
    <path d="M15.0756 8.01651H19.2855V10.8808H15.0756V8.01651Z" fill="white" />
  </mask>
  <g mask="url(#mask0)">
    <path fill-rule="evenodd" clip-rule="evenodd" d="M15.4988 9.44993C15.7552 9.36426 16.0269 9.334 16.2959 9.36117C16.5649 9.38833 16.8251 9.4723 17.0592 9.60752C17.2933 9.74274 17.496 9.92613 17.654 10.1456C17.8119 10.365 17.9215 10.6154 17.9754 10.8804L19.2848 10.6137C19.1931 10.1635 19.0068 9.7378 18.7384 9.36489C18.4699 8.99199 18.1254 8.68031 17.7275 8.45048C17.3296 8.22064 16.8875 8.07789 16.4303 8.03165C15.9732 7.98541 15.5114 8.03674 15.0756 8.18224L15.4995 9.44993H15.4988Z" fill="#00A4DF" />
  </g>
  <path fill-rule="evenodd" clip-rule="evenodd" d="M13.9542 13.6936L14.839 12.6932C14.6361 12.5141 14.4738 12.2938 14.3627 12.0471C14.2517 11.8003 14.1944 11.5327 14.1949 11.2621C14.1949 10.6932 14.4438 10.1825 14.8383 9.83306L13.9535 8.83203C13.2821 9.4269 12.8588 10.2953 12.8588 11.2621C12.8588 12.2303 13.2828 13.0987 13.9542 13.6936Z" fill="#FFF100" />
  <path fill-rule="evenodd" clip-rule="evenodd" d="M17.9755 11.6457C17.9211 11.9103 17.8113 12.1604 17.6531 12.3794C17.495 12.5985 17.2923 12.7815 17.0582 12.9164C16.8242 13.0514 16.5642 13.1351 16.2954 13.1622C16.0266 13.1892 15.7551 13.159 15.4989 13.0734L15.075 14.3411C15.5105 14.4866 15.972 14.5381 16.4289 14.4922C16.8858 14.4462 17.3278 14.3039 17.7257 14.0745C18.1235 13.8452 18.4682 13.5341 18.737 13.1617C19.0058 12.7894 19.1925 12.3642 19.2849 11.9144L17.9755 11.6457Z" fill="#EE4123" />
</svg>
