<svg width="35" height="22" viewBox="0 0 35 22" fill="none" xmlns="http://www.w3.org/2000/svg">
  <path d="M21.6595 19.1567H12.4395V2.58701H21.6597L21.6595 19.1567Z" fill="#FF5F00" />
  <path d="M13.0239 10.8714C13.0239 7.51022 14.5977 4.51608 17.0484 2.58652C15.1934 1.1238 12.899 0.329925 10.5366 0.333416C4.71726 0.333416 0 5.05136 0 10.8714C0 16.6914 4.71726 21.4094 10.5366 21.4094C12.899 21.4129 15.1935 20.619 17.0486 19.1563C14.5981 17.227 13.0239 14.2327 13.0239 10.8714Z" fill="#EB001B" />
  <path d="M34.0985 10.8719C34.0985 16.6919 29.3812 21.4099 23.5618 21.4099C21.1991 21.4133 18.9044 20.6195 17.049 19.1568C19.5003 17.2272 21.0741 14.2332 21.0741 10.8719C21.0741 7.51056 19.5003 4.51658 17.049 2.58703C18.9044 1.12435 21.199 0.33049 23.5616 0.333919C29.381 0.333919 34.0983 5.05186 34.0983 10.8719" fill="#F79E1B" />
</svg>
