<svg width="22" height="22" viewBox="0 0 22 22" fill="none" xmlns="http://www.w3.org/2000/svg">
<path d="M17.1549 16.83C16.7303 16.831 16.3098 16.748 15.9175 16.5856C15.5253 16.4232 15.1691 16.1846 14.8695 15.8838L11.5698 12.584C11.4531 12.4724 11.2979 12.4102 11.1364 12.4102C10.9749 12.4102 10.8197 12.4724 10.703 12.584L7.39141 15.8942C7.09188 16.1951 6.73569 16.4336 6.34344 16.596C5.95119 16.7584 5.53064 16.8415 5.1061 16.8404H4.45813L8.63858 21.0209C9.26562 21.6469 10.1155 21.9986 11.0016 21.9986C11.8877 21.9986 12.7375 21.6469 13.3646 21.0209L17.5555 16.83H17.1549Z" fill="#32BCAD"/>
<path d="M5.10629 5.15887C5.53085 5.15764 5.95144 5.24064 6.34372 5.40305C6.73599 5.56546 7.09216 5.80406 7.3916 6.10504L10.7032 9.41457C10.8183 9.52927 10.9741 9.59368 11.1366 9.59368C11.2991 9.59368 11.4549 9.52927 11.57 9.41457L14.8697 6.1148C15.1692 5.81382 15.5253 5.57521 15.9176 5.4128C16.3099 5.25039 16.7305 5.1674 17.155 5.16862H17.5522L13.3613 0.977722C12.7342 0.351646 11.8844 0 10.9983 0C10.1122 0 9.26232 0.351646 8.63528 0.977722L4.45483 5.15817L5.10629 5.15887Z" fill="#32BCAD"/>
<path d="M21.0184 8.63708L18.4858 6.10442C18.4288 6.12814 18.3678 6.14068 18.306 6.14135H17.155C16.5544 6.14194 15.9784 6.37985 15.5525 6.80325L12.2534 10.103C11.9562 10.3998 11.5534 10.5665 11.1334 10.5665C10.7134 10.5665 10.3106 10.3998 10.0134 10.103L6.7018 6.79141C6.2768 6.36866 5.70223 6.13057 5.10278 6.12881H3.69188C3.63361 6.12784 3.576 6.11627 3.52187 6.09467L0.978069 8.63708C0.35178 9.26415 0 10.1142 0 11.0004C0 11.8867 0.35178 12.7367 0.978069 13.3638L3.52048 15.9062C3.57454 15.8843 3.63216 15.8725 3.69048 15.8713H5.10626C5.70563 15.8698 6.28021 15.632 6.70529 15.2094L10.0169 11.8978C10.6154 11.3 11.6584 11.2993 12.2569 11.8978L15.556 15.1976C15.9816 15.6215 16.5578 15.8597 17.1585 15.8602H18.3095C18.3714 15.8607 18.4327 15.873 18.49 15.8964L21.0219 13.3645C21.6482 12.7374 22 11.8874 22 11.0011C22 10.1149 21.6482 9.26484 21.0219 8.63777L21.0184 8.63708Z" fill="#32BCAD"/>
</svg>
