<svg width="40" height="16" viewBox="0 0 40 16" fill="none" xmlns="http://www.w3.org/2000/svg">
  <g clip-path="url(#clip0)">
    <path d="M17.7616 13.9459H15.0147L16.7315 3.39524H19.4787L17.7616 13.9459ZM12.7039 3.39524L10.0852 10.652L9.77527 9.08937L9.77555 9.08993L8.85127 4.3452C8.85127 4.3452 8.73951 3.39524 7.54825 3.39524H3.21895L3.16815 3.57388C3.16815 3.57388 4.49206 3.84933 6.04146 4.77982L8.42794 13.9461H11.29L15.6602 3.39524H12.7039ZM34.3095 13.9459H36.8317L34.6326 3.39495H32.4245C31.4048 3.39495 31.1565 4.18123 31.1565 4.18123L27.0597 13.9459H29.9232L30.4958 12.3787H33.9877L34.3095 13.9459ZM31.2869 10.2137L32.7301 6.26544L33.5421 10.2137H31.2869ZM27.2745 5.93242L27.6665 3.66673C27.6665 3.66673 26.4569 3.20671 25.1959 3.20671C23.8328 3.20671 20.5957 3.80248 20.5957 6.6995C20.5957 9.42521 24.395 9.45908 24.395 10.8908C24.395 12.3225 20.9871 12.066 19.8625 11.1631L19.4541 13.5321C19.4541 13.5321 20.6806 14.1279 22.5546 14.1279C24.4291 14.1279 27.257 13.1573 27.257 10.5157C27.257 7.77251 23.4236 7.5171 23.4236 6.32443C23.4238 5.13147 26.099 5.28472 27.2745 5.93242Z" fill="#2566AF" />
    <path d="M9.77556 9.08953L8.85128 4.34481C8.85128 4.34481 8.73952 3.39485 7.54826 3.39485H3.21895L3.16815 3.5735C3.16815 3.5735 5.24898 4.00473 7.24487 5.62046C9.15326 7.16478 9.77556 9.08953 9.77556 9.08953Z" fill="#E6A540" />
  </g>
  <defs>
    <clipPath id="clip0">
      <rect width="40" height="16" fill="white" />
    </clipPath>
  </defs>
</svg>
